<svg xmlns="http://www.w3.org/2000/svg" viewBox="0 0 109.86 104.11"><defs><style>.cls-1{fill:#5c5c5c;}.cls-2{fill:none;stroke:#5c5c5c;stroke-miterlimit:10;stroke-width:1.75px;}</style></defs><title>Asset 1</title><g id="Layer_2" data-name="Layer 2"><g id="Layer_1-2" data-name="Layer 1"><path class="cls-1" d="M30.65,67.92H24.47V50c0-4.93-3-8.6-9-8.6-6.27,0-9.32,4.48-9.32,7.89V67.92H0v-31H4.3l.63,4.48h.36c2.6-3.5,5.92-5.2,11.56-5.2s9.68,2.15,11.92,5.74h.36c2.24-3.41,5.92-5.74,12.28-5.74,8.69,0,13.71,5.65,13.71,14.07V67.92H48.94V51.07c0-5.56-3-9.68-8.87-9.68-6.54,0-9.41,4.66-9.41,8.43Z"/><path class="cls-1" d="M96.24,55.82V81.9H90.05V55.82H82.7V50.89h7.35V37.36c0-10.31,4.84-15.15,13.08-15.15a13.77,13.77,0,0,1,6.72,1.61l-1.7,5.29a10.37,10.37,0,0,0-4.21-1.17c-5.2,0-7.71,2.87-7.71,9.41V50.89h11.29v4.93Z"/><line class="cls-2" x1="50.78" y1="103.8" x2="90.26" y2="0.31"/></g></g></svg>