<?xml version="1.0" encoding="utf-8"?>
<!-- Generator: Adobe Illustrator 21.0.2, SVG Export Plug-In . SVG Version: 6.00 Build 0)  -->
<svg version="1.1" id="Layer_1" xmlns="http://www.w3.org/2000/svg" xmlns:xlink="http://www.w3.org/1999/xlink" x="0px" y="0px"
	 viewBox="0 0 1280 1024" style="enable-background:new 0 0 1280 1024;" xml:space="preserve">
<g>
	<g>
		<path d="M597.8,375.7c-4.6-4-10-6.1-16-6.1c-6.5,0-12.5,2.4-18.1,7.1c-5.6,4.7-10.3,11.6-14,20.7c-1.8-6.8-3.9-12.1-6.3-15.7
			c-2.4-3.7-5.5-6.6-9.3-8.8c-3.8-2.2-7.8-3.3-12.1-3.3c-6.3,0-12.3,2.3-18,6.8c-4.1,3.4-8.2,8.8-12.1,16.2v-20h-11.3v115.9h11.3
			v-49.1c0-14.5,1.1-25.3,3.3-32.3c2.2-7,5.5-12.6,10.1-16.8c4.5-4.2,9.4-6.2,14.6-6.2c4.5,0,8.4,1.5,11.7,4.5c3.3,3,5.6,7,6.9,12
			c1.3,5,2,14.5,2,28.5v59.3h11.3v-45.4c0-16.6,1-28.5,3.1-35.6c2.1-7.1,5.4-12.8,9.9-17c4.5-4.3,9.5-6.4,14.9-6.4
			c4.5,0,8.3,1.4,11.6,4.3c3.2,2.8,5.5,6.6,6.9,11.2c1.3,4.7,2,13.2,2,25.6v63.3h11.5v-63.3c0-14.5-1.1-25.4-3.4-32.6
			C605.8,385.4,602.4,379.7,597.8,375.7z"/>
		<g>
			<path d="M597.8,373.2c-9.8-8.1-22.8-7.7-32.8,0c-4.6,3.5-8.1,8-11,13c-1.1,1.9-2.3,6.6-4,8c-0.4,1.4-0.7,1-0.8-1
				c-0.2-0.9-0.5-1.7-0.8-2.6c-0.5-1.6-1-3.1-1.6-4.6c-4.5-11.1-14.6-19.8-27.1-18.7c-13.4,1.2-21.7,11.9-27.7,22.9
				c0,0.8,0,1.7,0,2.5c0-6.7,0-13.4,0-20c0-0.1,0-2.5,0-2.5c-3.8,0-7.5,0-11.3,0c0,0,0,2.5,0,2.5c0,33.8,0,67.6,0,101.4
				c0,4.8,0,9.7,0,14.5c0,0.1,0,2.5,0,2.5c3.8,0,7.5,0,11.3,0c0,0,0-2.5,0-2.5c0-11.4,0-22.8,0-34.3c0-15.8-1.4-32.9,4.3-47.8
				c4.1-10.6,13.9-21.7,26.5-19.6c10.9,1.8,15.6,12.7,16.7,22.5c1.6,14,0.9,28.5,0.9,42.7c0,12.2,0,24.4,0,36.5c0,0.1,0,2.5,0,2.5
				c3.8,0,7.5,0,11.3,0c0,0,0-2.5,0-2.5c0-11.5,0-23,0-34.5c0-16.5-1.6-34.8,5.4-50.1c4.9-10.7,16.3-20.9,28.8-16.2
				c10.9,4,13.2,16.2,13.8,26.3c0.8,12.4,0.3,25,0.3,37.4c0,12.4,0,24.7,0,37.1c0,0.1,0,2.5,0,2.5c3.8,0,7.7,0,11.5,0
				c0,0,0-2.5,0-2.5c0-25.5,1-51.2-0.3-76.7C610.5,397.9,608.5,383,597.8,373.2c0.8,0.7-0.9,4.2,0,5c17,15.6,13.7,43,13.7,64.2
				c0,15.4,0,30.8,0,46.1c0-0.8,0-1.7,0-2.5c-3.8,0-7.7,0-11.5,0c0,0.8,0,1.7,0,2.5c0-23.7,0.4-47.4-0.1-71
				c-0.2-10.1,0-22.2-7.3-30.1c-10.2-11-25.5-4.6-32.7,6.2c-10,14.9-8.4,35.8-8.4,53c0,14,0,28,0,42c0-0.8,0-1.7,0-2.5
				c-3.8,0-7.5,0-11.3,0c0,0.8,0,1.7,0,2.5c0-24.5,0.7-49.2-0.2-73.8c-0.4-9.9-0.8-21.4-8.7-28.6c-10.9-10-25.7-1.8-32.2,9
				c-8.9,14.8-7.4,33.9-7.4,50.5c0,14.3,0,28.6,0,42.9c0-0.8,0-1.7,0-2.5c-3.8,0-7.5,0-11.3,0c0,0.8,0,1.7,0,2.5
				c0-33.8,0-67.6,0-101.4c0-4.8,0-9.7,0-14.5c0,0.8,0,1.7,0,2.5c3.8,0,7.5,0,11.3,0c0-0.8,0-1.7,0-2.5c0,6.7,0,13.4,0,20
				c0,0.5,0.3,2,0,2.5c5.8-10.7,13.9-21.2,26.9-22.8c12.9-1.6,23.3,7.2,27.9,18.6c0.4,1,3.1,9,2.9,9c1-0.2,3.6-7.6,4.3-8.8
				c2.7-4.7,6.1-9,10.4-12.4c10-8.1,23.4-8.8,33.5-0.5C597,377.5,598.6,373.9,597.8,373.2z"/>
		</g>
	</g>
	<g>
		<path d="M789.2,344.7c0.4-1.5,1.3-2.9,2.7-4c1.4-1.2,3.3-1.8,5.5-1.8c2.9,0,6.5,1.2,10.6,3.5v-14.6c-5.1-2-9.5-3-13.1-3
			c-3.9,0-7.3,1.1-10,3.3c-2.8,2.2-4.7,5-5.9,8.6c-1.2,3.6-1.7,9.5-1.7,17.8v18.1h-11.5v12.9h11.5v103h11.3l0.1-103h18.3v-12.9
			h-18.3l0-15.7C788.6,350.3,788.8,346.2,789.2,344.7z"/>
		<g>
			<path d="M789.2,347.2c3-8.8,12.8-5.5,18.8-2.3c-0.1-0.1,0-2.4,0-2.5c0-4.9,0-9.7,0-14.6c0-0.2,0.1-2.4,0-2.5
				c-8.2-3.1-17.9-5.2-24.8,1.8c-5.5,5.6-5.7,13.9-5.9,21.3c-0.2,8.1-0.1,16.1-0.1,24.2c0-0.8,0-1.7,0-2.5c-3.8,0-7.7,0-11.5,0
				c0,0,0,2.5,0,2.5c0,4.3,0,8.6,0,12.9c0,0.1,0,2.5,0,2.5c3.8,0,7.7,0,11.5,0c0-0.8,0-1.7,0-2.5c0,30.1,0,60.2,0,90.3
				c0,4.2,0,8.5,0,12.7c0,0.1,0,2.5,0,2.5c3.8,0,7.5,0,11.3,0c0,0,0-2.5,0-2.5c0-30.1,0-60.2,0.1-90.3c0-4.2,0-8.5,0-12.7
				c0,0.8,0,1.7,0,2.5c6.1,0,12.2,0,18.3,0c0,0,0-2.5,0-2.5c0-4.3,0-8.6,0-12.9c0-0.1,0-2.5,0-2.5c-6.1,0-12.2,0-18.3,0
				c0,0.8,0,1.7,0,2.5C788.6,364.4,787.6,355.2,789.2,347.2c0.3-1.6-0.3-3.4,0-5c-1.9,9.5-0.6,20.6-0.6,30.4c0,0.1,0,2.5,0,2.5
				c6.1,0,12.2,0,18.3,0c0-0.8,0-1.7,0-2.5c0,4.3,0,8.6,0,12.9c0-0.8,0-1.7,0-2.5c-6.1,0-12.2,0-18.3,0c0,0,0,2.5,0,2.5
				c0,30.1,0,60.2-0.1,90.3c0,4.2,0,8.5,0,12.7c0-0.8,0-1.7,0-2.5c-3.8,0-7.5,0-11.3,0c0,0.8,0,1.7,0,2.5c0-30.1,0-60.2,0-90.3
				c0-4.2,0-8.5,0-12.7c0-0.1,0-2.5,0-2.5c-3.8,0-7.7,0-11.5,0c0,0.8,0,1.7,0,2.5c0-4.3,0-8.6,0-12.9c0,0.8,0,1.7,0,2.5
				c3.8,0,7.7,0,11.5,0c0,0,0-2.5,0-2.5c0-8.5-0.4-17.1,0.3-25.6c0.6-6.7,2.4-13.4,8.4-17.2c6.7-4.3,15-2,21.9,0.6
				c0-0.8,0-1.7,0-2.5c0,4.9,0,9.7,0,14.6c0-0.8,0-1.7,0-2.5c-6-3.2-15.8-6.5-18.8,2.3C788.7,343.7,789.7,345.7,789.2,347.2z"/>
		</g>
	</g>
	<g>
		<path d="M759.4,293.3c-47,78.5-90.9,158.5-131.7,239.7L759.4,293.3z"/>
		<g>
			<path d="M759.4,290.8C722.8,351.9,688,414,655,477.1c-9.3,17.7-18.4,35.5-27.3,53.4c-0.7,1.3,0.7,3.7,0,5
				c14.9-27,29.7-54.1,44.6-81.1c23.6-43.1,47.3-86.1,70.9-129.2c5.4-9.8,10.8-19.6,16.2-29.5C760.1,294.5,758.7,292,759.4,290.8
				c-14.9,27-29.7,54.1-44.6,81.1c-23.6,43.1-47.3,86.1-70.9,129.2c-5.4,9.8-10.8,19.6-16.2,29.5c0,1.7,0,3.3,0,5
				c31.9-63.5,65.6-126.1,101.1-187.7c10-17.4,20.2-34.7,30.6-52C760.1,294.5,758.6,292,759.4,290.8z"/>
		</g>
	</g>
</g>
</svg>
